<svg xmlns="http://www.w3.org/2000/svg" width="24.957" height="24.374" viewBox="0 0 24.957 24.374">
  <g id="ic_search" transform="translate(-5480.89 -847.142)">
    <path id="Path_7" data-name="Path 7" d="M5498.01,856.077a8.185,8.185,0,1,1-8.185-8.185A8.186,8.186,0,0,1,5498.01,856.077Z" fill="none" stroke="#898989" stroke-miterlimit="10" stroke-width="1.5"/>
    <path id="Path_8" data-name="Path 8" d="M5484.084,854.963a5.853,5.853,0,0,1,4.556-4.612" fill="none" stroke="#898989" stroke-miterlimit="10" stroke-width="1.5"/>
    <path id="Path_9" data-name="Path 9" d="M5498.888,862.8l5.845,5.845a1.239,1.239,0,0,1,0,1.754h0a1.237,1.237,0,0,1-1.752,0l-5.848-5.846a1.24,1.24,0,0,1,0-1.753h0A1.239,1.239,0,0,1,5498.888,862.8Z" fill="none" stroke="#898989" stroke-miterlimit="10" stroke-width="1.5"/>
    <line id="Line_8" data-name="Line 8" x2="1.235" y2="1.237" transform="translate(5495.897 861.565)" fill="none" stroke="#898989" stroke-miterlimit="10" stroke-width="1.5"/>
  </g>
</svg>
